<svg id="Layer_1" data-name="Layer 1" xmlns="http://www.w3.org/2000/svg" width="1000" height="1000" viewBox="0 0 1000 1000">
  <defs>
    <style>
      .cls-1 {
        fill: #1d1d1b;
      }
    </style>
  </defs>
  <g>
    <path class="cls-1" d="M150.564,90.55078v77.25049h-8.374V90.55078H115.2998V83.35644h62.1543v7.19434Z"/>
    <path class="cls-1" d="M243.145,126.64013H196.79443v41.16114H188.4209V83.35644h8.37353V119.4458H243.145V83.35644h8.373v84.44483h-8.373Z"/>
    <path class="cls-1" d="M713.51294,83.35644v7.19434H280.17627v30.54639H709.62036v6.72265H280.17627v32.78711H714.69165v7.19434H271.80224V83.35644Z"/>
    <path class="cls-1" d="M741.40454,129.4707v38.33057h-8.374V83.35644h35.38135q13.20849,0,19.69629,5.30713,6.83936,5.54517,6.84082,16.86524,0,14.272-13.21,20.40381a16.53754,16.53754,0,0,1,7.84375,6.72265q2.41553,4.24585,2.88964,12.14746l.707,10.96875a22.85372,22.85372,0,0,0,1.415,6.9585,15.38677,15.38677,0,0,0,3.89257,5.07129H787.283a33.25927,33.25927,0,0,1-2.24121-9.55323l-.82519-9.67089q-.82764-10.96875-4.36426-15.0376-3.5376-4.0686-12.14746-4.06885Zm0-6.72266h25.47412q10.61573,0,15.09668-4.00976,4.71534-4.24586,4.71778-12.02979,0-7.78417-4.71778-12.14795-4.48387-4.0078-15.09668-4.00976H741.40454Z"/>
    <path class="cls-1" d="M873.20191,83.35644v7.19434h-48.002v30.54639h44.10938v6.72265H825.19995v32.78711h49.18067v7.19434H816.82593V83.35644Z"/>
    <path class="cls-1" d="M148.846,224.88428V309.3291h-8.37353V224.88428Z"/>
    <path class="cls-1" d="M225.035,248.354h-8.4917q-.47241-7.78418-4.59961-12.14746-5.89893-6.01537-16.9834-6.01514-10.02612,0-15.686,4.95362a14.40741,14.40741,0,0,0-4.83545,11.2041q0,10.73364,13.917,13.68115l15.80371,3.30225q11.55762,2.477,16.74756,7.43017,5.896,5.78028,5.897,14.97852,0,12.38379-9.55322,19.34228-8.2566,6.13331-21.229,6.13282-17.80957,0-26.41846-11.08643-5.19141-6.60351-5.54346-18.75244h8.4917q.35376,22.64429,23.82422,22.64453,10.73,0,16.74707-5.42529a15.50818,15.50818,0,0,0,5.30762-12.14795q0-6.24977-4.06885-9.84815-4.06934-3.59619-13.5044-5.602L185.761,267.69629q-19.81421-4.24585-19.814-21.229,0-11.5576,8.96338-17.92724,7.78418-5.54225,20.28564-5.543,17.09985,0,24.88526,10.14258Q224.44364,238.80127,225.035,248.354Z"/>
    <path class="cls-1" d="M789.75928,309.3291h-8.60937L731.96924,235.145q.47022,8.13794.58984,33.96631V309.3291h-7.54882V224.88428h8.72754l49.06347,73.94824q-.5918-13.44507-.58984-34.79248V224.88428h7.54785Z"/>
    <path class="cls-1" d="M845.544,222.99707q18.86865,0,29.7207,13.68115,9.43506,12.03,9.43555,30.42822,0,21.22926-12.14746,33.49512Q861.937,311.21582,845.544,311.21631q-18.75074,0-29.602-13.68116-9.438-11.91136-9.43555-30.42871,0-21.22925,12.14844-33.49463Q829.269,222.99682,845.544,222.99707Zm0,7.19433q-14.272,0-22.99756,10.96827-7.66846,9.67236-7.666,25.94677,0,17.81031,9.55274,28.06983,8.2544,8.84546,21.229,8.8457,14.7422,0,23.23438-11.44043,7.42968-9.90674,7.42968-25.4751,0-16.03784-7.666-25.94677Q860.16847,230.19164,845.544,230.1914Z"/>
    <path class="cls-1" d="M192.90429,390.354h-8.8457a23.18047,23.18047,0,0,0-8.84521-13.68164,26.68016,26.68016,0,0,0-16.27588-4.95312q-14.62574,0-22.52637,11.32226-6.96021,9.90673-6.9585,25.94629,0,17.92969,8.96338,27.95215,7.78419,8.61034,20.28565,8.60937,11.55688,0,18.98828-7.54785,6.48486-6.60351,8.02-17.45508h8.25586Q192.4314,431.398,187.479,438.355q-9.90674,14.39063-29.01318,14.38867-18.39845,0-28.54151-13.44531-8.84545-11.67482-8.8457-30.66406,0-21.81739,11.67627-33.73047,10.02319-10.377,26.53662-10.37891,13.91455,0,23.11621,7.78418A32.05852,32.05852,0,0,1,192.90429,390.354Z"/>
    <path class="cls-1" d="M217.31738,366.41162v84.44531h-8.37354V366.41162Z"/>
    <path class="cls-1" d="M245.97607,412.52685v38.33008H237.603V366.41162h35.38086q13.21,0,19.69727,5.30762,6.83788,5.54443,6.83984,16.86523,0,14.272-13.209,20.40332a16.552,16.552,0,0,1,7.84375,6.72266q2.41406,4.24658,2.88867,12.14843l.707,10.96778a22.85072,22.85072,0,0,0,1.416,6.959,15.36857,15.36857,0,0,0,3.89258,5.07129H291.855a33.23463,33.23463,0,0,1-2.24024-9.55273l-.82617-9.67188q-.82617-10.96728-4.36328-15.03711-3.53906-4.06934-12.14844-4.06836Zm0-6.72265h25.47461q10.6172,0,15.09766-4.01074,4.71387-4.24512,4.71679-12.0293,0-7.78418-4.71679-12.14746-4.48536-4.00927-15.09766-4.01074H245.97607Z"/>
    <path class="cls-1" d="M387.26562,390.354H378.4209a23.18562,23.18562,0,0,0-8.84571-13.68164,26.67911,26.67911,0,0,0-16.27588-4.95312q-14.625,0-22.52636,11.32226-6.95947,9.90673-6.958,25.94629,0,17.92969,8.96289,27.95215,7.78418,8.61034,20.28613,8.60937,11.55689,0,18.98779-7.54785,6.48487-6.60351,8.01954-17.45508h8.25586q-1.5337,10.85157-6.48633,17.8086-9.90674,14.39063-29.01319,14.38867-18.39843,0-28.541-13.44531-8.84619-11.67482-8.8457-30.66406,0-21.81739,11.67578-33.73047,10.02392-10.377,26.53711-10.37891,13.91381,0,23.11572,7.78418A32.05249,32.05249,0,0,1,387.26562,390.354Z"/>
    <path class="cls-1" d="M411.67968,366.41162v77.251H452.4873v7.19433H403.30566V366.41162Z"/>
    <path class="cls-1" d="M877.68311,366.41162V373.606H473.00683v30.54687h400.7837v6.72266H473.00683V443.6626h405.855v7.19433h-414.229V366.41162Z"/>
  </g>
</svg>
